<mxfile host="app.diagrams.net" modified="2020-05-20T12:42:04.996Z" agent="5.0 (Windows NT 10.0; Win64; x64) AppleWebKit/537.36 (KHTML, like Gecko) Chrome/80.0.3987.132 Safari/537.36" etag="Ed4_DuuOTOqNAbjcmkht" version="13.1.3" type="github">
  <diagram id="UteESkg8PsY_XmZYqFVY" name="Page-1">
    <mxGraphModel dx="1422" dy="713" grid="1" gridSize="10" guides="1" tooltips="1" connect="1" arrows="1" fold="1" page="1" pageScale="1" pageWidth="1169" pageHeight="827" math="0" shadow="0">
      <root>
        <mxCell id="0" />
        <mxCell id="1" value="steps" parent="0" visible="0" />
        <mxCell id="wmOgwJelC3KoBMGndn4P-7" value="" style="edgeStyle=orthogonalEdgeStyle;rounded=0;orthogonalLoop=1;jettySize=auto;html=1;" parent="1" source="wmOgwJelC3KoBMGndn4P-1" target="wmOgwJelC3KoBMGndn4P-2" edge="1">
          <mxGeometry relative="1" as="geometry" />
        </mxCell>
        <mxCell id="wmOgwJelC3KoBMGndn4P-1" value="Init props" style="shape=step;perimeter=stepPerimeter;whiteSpace=wrap;html=1;fixedSize=1;" parent="1" vertex="1">
          <mxGeometry x="80" y="80" width="130" height="80" as="geometry" />
        </mxCell>
        <mxCell id="wmOgwJelC3KoBMGndn4P-8" value="" style="edgeStyle=orthogonalEdgeStyle;rounded=0;orthogonalLoop=1;jettySize=auto;html=1;" parent="1" source="wmOgwJelC3KoBMGndn4P-2" target="wmOgwJelC3KoBMGndn4P-3" edge="1">
          <mxGeometry relative="1" as="geometry" />
        </mxCell>
        <mxCell id="wmOgwJelC3KoBMGndn4P-2" value="SCM Interaction" style="shape=step;perimeter=stepPerimeter;whiteSpace=wrap;html=1;fixedSize=1;" parent="1" vertex="1">
          <mxGeometry x="230" y="80" width="150" height="80" as="geometry" />
        </mxCell>
        <mxCell id="wmOgwJelC3KoBMGndn4P-9" value="" style="edgeStyle=orthogonalEdgeStyle;rounded=0;orthogonalLoop=1;jettySize=auto;html=1;" parent="1" source="wmOgwJelC3KoBMGndn4P-3" target="wmOgwJelC3KoBMGndn4P-4" edge="1">
          <mxGeometry relative="1" as="geometry" />
        </mxCell>
        <mxCell id="wmOgwJelC3KoBMGndn4P-3" value="Unit tests&amp;nbsp;&lt;br&gt;quality tools&lt;br&gt;&amp;amp; build" style="shape=step;perimeter=stepPerimeter;whiteSpace=wrap;html=1;fixedSize=1;" parent="1" vertex="1">
          <mxGeometry x="400" y="80" width="150" height="80" as="geometry" />
        </mxCell>
        <mxCell id="wmOgwJelC3KoBMGndn4P-10" value="" style="edgeStyle=orthogonalEdgeStyle;rounded=0;orthogonalLoop=1;jettySize=auto;html=1;" parent="1" source="wmOgwJelC3KoBMGndn4P-4" target="wmOgwJelC3KoBMGndn4P-5" edge="1">
          <mxGeometry relative="1" as="geometry" />
        </mxCell>
        <mxCell id="wmOgwJelC3KoBMGndn4P-4" value="deploy on &lt;br&gt;targetted env" style="shape=step;perimeter=stepPerimeter;whiteSpace=wrap;html=1;fixedSize=1;" parent="1" vertex="1">
          <mxGeometry x="570" y="80" width="150" height="80" as="geometry" />
        </mxCell>
        <mxCell id="wmOgwJelC3KoBMGndn4P-11" value="" style="edgeStyle=orthogonalEdgeStyle;rounded=0;orthogonalLoop=1;jettySize=auto;html=1;" parent="1" source="wmOgwJelC3KoBMGndn4P-5" edge="1">
          <mxGeometry relative="1" as="geometry">
            <mxPoint x="960" y="120" as="targetPoint" />
          </mxGeometry>
        </mxCell>
        <mxCell id="wmOgwJelC3KoBMGndn4P-5" value="Integration tests" style="shape=step;perimeter=stepPerimeter;whiteSpace=wrap;html=1;fixedSize=1;" parent="1" vertex="1">
          <mxGeometry x="740" y="80" width="160" height="80" as="geometry" />
        </mxCell>
        <mxCell id="wmOgwJelC3KoBMGndn4P-6" value="post &lt;br&gt;build actions" style="shape=step;perimeter=stepPerimeter;whiteSpace=wrap;html=1;fixedSize=1;" parent="1" vertex="1">
          <mxGeometry x="920" y="80" width="150" height="80" as="geometry" />
        </mxCell>
        <mxCell id="wmOgwJelC3KoBMGndn4P-12" value="steps comments" parent="0" visible="0" />
        <mxCell id="wmOgwJelC3KoBMGndn4P-13" value="" style="endArrow=none;dashed=1;html=1;" parent="wmOgwJelC3KoBMGndn4P-12" edge="1">
          <mxGeometry width="50" height="50" relative="1" as="geometry">
            <mxPoint x="550" y="520" as="sourcePoint" />
            <mxPoint x="550" y="160" as="targetPoint" />
          </mxGeometry>
        </mxCell>
        <mxCell id="wmOgwJelC3KoBMGndn4P-14" value="" style="endArrow=none;dashed=1;html=1;" parent="wmOgwJelC3KoBMGndn4P-12" edge="1">
          <mxGeometry width="50" height="50" relative="1" as="geometry">
            <mxPoint x="720" y="520" as="sourcePoint" />
            <mxPoint x="720" y="160" as="targetPoint" />
          </mxGeometry>
        </mxCell>
        <mxCell id="wmOgwJelC3KoBMGndn4P-15" value="" style="endArrow=none;dashed=1;html=1;" parent="wmOgwJelC3KoBMGndn4P-12" edge="1">
          <mxGeometry width="50" height="50" relative="1" as="geometry">
            <mxPoint x="900" y="520" as="sourcePoint" />
            <mxPoint x="900" y="160" as="targetPoint" />
          </mxGeometry>
        </mxCell>
        <mxCell id="wmOgwJelC3KoBMGndn4P-16" value="" style="endArrow=none;dashed=1;html=1;" parent="wmOgwJelC3KoBMGndn4P-12" edge="1">
          <mxGeometry width="50" height="50" relative="1" as="geometry">
            <mxPoint x="380" y="520" as="sourcePoint" />
            <mxPoint x="380" y="160" as="targetPoint" />
          </mxGeometry>
        </mxCell>
        <mxCell id="wmOgwJelC3KoBMGndn4P-17" value="" style="endArrow=none;dashed=1;html=1;" parent="wmOgwJelC3KoBMGndn4P-12" edge="1">
          <mxGeometry width="50" height="50" relative="1" as="geometry">
            <mxPoint x="210" y="520" as="sourcePoint" />
            <mxPoint x="210" y="160" as="targetPoint" />
          </mxGeometry>
        </mxCell>
        <mxCell id="wmOgwJelC3KoBMGndn4P-18" value="pure pipeline steps" style="text;html=1;strokeColor=none;fillColor=none;align=center;verticalAlign=middle;whiteSpace=wrap;rounded=0;" parent="wmOgwJelC3KoBMGndn4P-12" vertex="1">
          <mxGeometry x="110" y="210" width="40" height="20" as="geometry" />
        </mxCell>
        <mxCell id="wmOgwJelC3KoBMGndn4P-19" value="pure pipeline steps" style="text;html=1;strokeColor=none;fillColor=none;align=center;verticalAlign=middle;whiteSpace=wrap;rounded=0;" parent="wmOgwJelC3KoBMGndn4P-12" vertex="1">
          <mxGeometry x="280" y="210" width="40" height="20" as="geometry" />
        </mxCell>
        <mxCell id="wmOgwJelC3KoBMGndn4P-20" value="step dependant on application code" style="text;html=1;strokeColor=none;fillColor=none;align=center;verticalAlign=middle;whiteSpace=wrap;rounded=0;" parent="wmOgwJelC3KoBMGndn4P-12" vertex="1">
          <mxGeometry x="450" y="210" width="40" height="20" as="geometry" />
        </mxCell>
        <mxCell id="wmOgwJelC3KoBMGndn4P-21" value="depend on tech stack and infra" style="text;html=1;strokeColor=none;fillColor=none;align=center;verticalAlign=middle;whiteSpace=wrap;rounded=0;" parent="wmOgwJelC3KoBMGndn4P-12" vertex="1">
          <mxGeometry x="620" y="210" width="40" height="20" as="geometry" />
        </mxCell>
        <mxCell id="wmOgwJelC3KoBMGndn4P-22" value="step dependant on application code" style="text;html=1;strokeColor=none;fillColor=none;align=center;verticalAlign=middle;whiteSpace=wrap;rounded=0;" parent="wmOgwJelC3KoBMGndn4P-12" vertex="1">
          <mxGeometry x="790" y="210" width="40" height="20" as="geometry" />
        </mxCell>
        <mxCell id="wmOgwJelC3KoBMGndn4P-23" value="depend on tech stack and infra" style="text;html=1;strokeColor=none;fillColor=none;align=center;verticalAlign=middle;whiteSpace=wrap;rounded=0;" parent="wmOgwJelC3KoBMGndn4P-12" vertex="1">
          <mxGeometry x="970" y="210" width="40" height="20" as="geometry" />
        </mxCell>
        <mxCell id="wmOgwJelC3KoBMGndn4P-24" value="back" parent="0" visible="0" />
        <mxCell id="wmOgwJelC3KoBMGndn4P-39" value="" style="edgeStyle=orthogonalEdgeStyle;rounded=0;orthogonalLoop=1;jettySize=auto;html=1;fontColor=none;" parent="wmOgwJelC3KoBMGndn4P-24" source="wmOgwJelC3KoBMGndn4P-28" target="wmOgwJelC3KoBMGndn4P-31" edge="1">
          <mxGeometry relative="1" as="geometry" />
        </mxCell>
        <mxCell id="wmOgwJelC3KoBMGndn4P-28" value="Init props" style="shape=step;perimeter=stepPerimeter;whiteSpace=wrap;html=1;fixedSize=1;" parent="wmOgwJelC3KoBMGndn4P-24" vertex="1">
          <mxGeometry x="100" y="100" width="130" height="80" as="geometry" />
        </mxCell>
        <mxCell id="wmOgwJelC3KoBMGndn4P-41" value="" style="edgeStyle=orthogonalEdgeStyle;rounded=0;orthogonalLoop=1;jettySize=auto;html=1;fontColor=none;" parent="wmOgwJelC3KoBMGndn4P-24" source="wmOgwJelC3KoBMGndn4P-29" target="wmOgwJelC3KoBMGndn4P-30" edge="1">
          <mxGeometry relative="1" as="geometry" />
        </mxCell>
        <mxCell id="wmOgwJelC3KoBMGndn4P-29" value="CDK" style="shape=step;perimeter=stepPerimeter;whiteSpace=wrap;html=1;fixedSize=1;" parent="wmOgwJelC3KoBMGndn4P-24" vertex="1">
          <mxGeometry x="420" y="100" width="150" height="80" as="geometry" />
        </mxCell>
        <mxCell id="wmOgwJelC3KoBMGndn4P-42" value="" style="edgeStyle=orthogonalEdgeStyle;rounded=0;orthogonalLoop=1;jettySize=auto;html=1;fontColor=none;" parent="wmOgwJelC3KoBMGndn4P-24" source="wmOgwJelC3KoBMGndn4P-30" target="wmOgwJelC3KoBMGndn4P-32" edge="1">
          <mxGeometry relative="1" as="geometry" />
        </mxCell>
        <mxCell id="wmOgwJelC3KoBMGndn4P-30" value="Finalize" style="shape=step;perimeter=stepPerimeter;whiteSpace=wrap;html=1;fixedSize=1;" parent="wmOgwJelC3KoBMGndn4P-24" vertex="1">
          <mxGeometry x="590" y="100" width="150" height="80" as="geometry" />
        </mxCell>
        <mxCell id="wmOgwJelC3KoBMGndn4P-40" value="" style="edgeStyle=orthogonalEdgeStyle;rounded=0;orthogonalLoop=1;jettySize=auto;html=1;fontColor=none;" parent="wmOgwJelC3KoBMGndn4P-24" source="wmOgwJelC3KoBMGndn4P-31" target="wmOgwJelC3KoBMGndn4P-29" edge="1">
          <mxGeometry relative="1" as="geometry" />
        </mxCell>
        <mxCell id="wmOgwJelC3KoBMGndn4P-31" value="SCM" style="shape=step;perimeter=stepPerimeter;whiteSpace=wrap;html=1;fixedSize=1;" parent="wmOgwJelC3KoBMGndn4P-24" vertex="1">
          <mxGeometry x="260" y="100" width="130" height="80" as="geometry" />
        </mxCell>
        <mxCell id="wmOgwJelC3KoBMGndn4P-43" value="" style="edgeStyle=orthogonalEdgeStyle;rounded=0;orthogonalLoop=1;jettySize=auto;html=1;fontColor=none;" parent="wmOgwJelC3KoBMGndn4P-24" source="wmOgwJelC3KoBMGndn4P-32" target="wmOgwJelC3KoBMGndn4P-33" edge="1">
          <mxGeometry relative="1" as="geometry" />
        </mxCell>
        <mxCell id="wmOgwJelC3KoBMGndn4P-32" value="Actor" style="shape=umlActor;verticalLabelPosition=bottom;labelBackgroundColor=#ffffff;verticalAlign=top;html=1;outlineConnect=0;noLabel=1;fontColor=none;" parent="wmOgwJelC3KoBMGndn4P-24" vertex="1">
          <mxGeometry x="800" y="110" width="30" height="60" as="geometry" />
        </mxCell>
        <mxCell id="wmOgwJelC3KoBMGndn4P-44" value="" style="edgeStyle=orthogonalEdgeStyle;rounded=0;orthogonalLoop=1;jettySize=auto;html=1;fontColor=none;" parent="wmOgwJelC3KoBMGndn4P-24" source="wmOgwJelC3KoBMGndn4P-33" target="wmOgwJelC3KoBMGndn4P-34" edge="1">
          <mxGeometry relative="1" as="geometry" />
        </mxCell>
        <mxCell id="wmOgwJelC3KoBMGndn4P-33" value="Actor" style="shape=umlActor;verticalLabelPosition=bottom;labelBackgroundColor=#ffffff;verticalAlign=top;html=1;outlineConnect=0;noLabel=1;fontColor=none;" parent="wmOgwJelC3KoBMGndn4P-24" vertex="1">
          <mxGeometry x="880" y="110" width="30" height="60" as="geometry" />
        </mxCell>
        <mxCell id="wmOgwJelC3KoBMGndn4P-34" value="Actor" style="shape=umlActor;verticalLabelPosition=bottom;labelBackgroundColor=#ffffff;verticalAlign=top;html=1;outlineConnect=0;noLabel=1;fontColor=none;" parent="wmOgwJelC3KoBMGndn4P-24" vertex="1">
          <mxGeometry x="970" y="110" width="30" height="60" as="geometry" />
        </mxCell>
        <mxCell id="wmOgwJelC3KoBMGndn4P-45" value="revision id" style="text;html=1;strokeColor=none;fillColor=none;align=center;verticalAlign=middle;whiteSpace=wrap;rounded=0;fontColor=none;" parent="wmOgwJelC3KoBMGndn4P-24" vertex="1">
          <mxGeometry x="795" y="200" width="40" height="20" as="geometry" />
        </mxCell>
        <mxCell id="wmOgwJelC3KoBMGndn4P-46" value="alb lambdas&lt;br&gt;version and alias" style="text;html=1;strokeColor=none;fillColor=none;align=center;verticalAlign=middle;whiteSpace=wrap;rounded=0;fontColor=none;" parent="wmOgwJelC3KoBMGndn4P-24" vertex="1">
          <mxGeometry x="875" y="200" width="40" height="20" as="geometry" />
        </mxCell>
        <mxCell id="wmOgwJelC3KoBMGndn4P-47" value="db updates (optional)" style="text;html=1;strokeColor=none;fillColor=none;align=center;verticalAlign=middle;whiteSpace=wrap;rounded=0;fontColor=none;" parent="wmOgwJelC3KoBMGndn4P-24" vertex="1">
          <mxGeometry x="965" y="200" width="40" height="20" as="geometry" />
        </mxCell>
        <mxCell id="wmOgwJelC3KoBMGndn4P-48" value="delete-env" style="shape=step;perimeter=stepPerimeter;whiteSpace=wrap;html=1;fixedSize=1;fontColor=none;" parent="wmOgwJelC3KoBMGndn4P-24" vertex="1">
          <mxGeometry x="100" y="380" width="120" height="80" as="geometry" />
        </mxCell>
        <mxCell id="zkwUHvIcLmXq8PSMDE9L-1" value="" style="edgeStyle=orthogonalEdgeStyle;rounded=0;orthogonalLoop=1;jettySize=auto;html=1;fontColor=none;" edge="1" target="zkwUHvIcLmXq8PSMDE9L-3" parent="wmOgwJelC3KoBMGndn4P-24">
          <mxGeometry relative="1" as="geometry">
            <mxPoint x="830" y="320" as="sourcePoint" />
          </mxGeometry>
        </mxCell>
        <mxCell id="zkwUHvIcLmXq8PSMDE9L-2" value="" style="edgeStyle=orthogonalEdgeStyle;rounded=0;orthogonalLoop=1;jettySize=auto;html=1;fontColor=none;" edge="1" source="zkwUHvIcLmXq8PSMDE9L-3" target="zkwUHvIcLmXq8PSMDE9L-4" parent="wmOgwJelC3KoBMGndn4P-24">
          <mxGeometry relative="1" as="geometry" />
        </mxCell>
        <mxCell id="zkwUHvIcLmXq8PSMDE9L-3" value="Actor" style="shape=umlActor;verticalLabelPosition=bottom;labelBackgroundColor=#ffffff;verticalAlign=top;html=1;outlineConnect=0;noLabel=1;fontColor=none;" vertex="1" parent="wmOgwJelC3KoBMGndn4P-24">
          <mxGeometry x="880" y="290" width="30" height="60" as="geometry" />
        </mxCell>
        <mxCell id="zkwUHvIcLmXq8PSMDE9L-4" value="Actor" style="shape=umlActor;verticalLabelPosition=bottom;labelBackgroundColor=#ffffff;verticalAlign=top;html=1;outlineConnect=0;noLabel=1;fontColor=none;" vertex="1" parent="wmOgwJelC3KoBMGndn4P-24">
          <mxGeometry x="970" y="290" width="30" height="60" as="geometry" />
        </mxCell>
        <mxCell id="zkwUHvIcLmXq8PSMDE9L-5" value="backup queue&lt;br&gt;SQS" style="text;html=1;strokeColor=none;fillColor=none;align=center;verticalAlign=middle;whiteSpace=wrap;rounded=0;fontColor=none;" vertex="1" parent="wmOgwJelC3KoBMGndn4P-24">
          <mxGeometry x="875" y="380" width="40" height="20" as="geometry" />
        </mxCell>
        <mxCell id="zkwUHvIcLmXq8PSMDE9L-6" value="dynamod db updates (optional)" style="text;html=1;strokeColor=none;fillColor=none;align=center;verticalAlign=middle;whiteSpace=wrap;rounded=0;fontColor=none;" vertex="1" parent="wmOgwJelC3KoBMGndn4P-24">
          <mxGeometry x="965" y="380" width="40" height="20" as="geometry" />
        </mxCell>
        <mxCell id="zkwUHvIcLmXq8PSMDE9L-7" value="Untitled Layer" parent="0" />
        <mxCell id="zkwUHvIcLmXq8PSMDE9L-8" value="" style="shape=image;verticalLabelPosition=bottom;labelBackgroundColor=#ffffff;verticalAlign=top;aspect=fixed;imageAspect=0;image=data:image/jpeg,/9j/4AAQSkZJRgABAQAAAQABAAD/2wCEAAkGBxMTEhUTExIVFhUXFxcYFxUYGBcXFxcVFxUXFxcYFxgYHSggGholHRUVITEhJSkrLi4uFx8zODMtNygtLisBCgoKDg0OFxAQGi0dHR0tLS0tLS0tLS0tLS0tLS0tLS0tLS0tLSstLSstLS0tLS0tLS0tLS0tKy0tLS0tNzc3Lf/AABEIAJoBSAMBIgACEQEDEQH/xAAbAAACAwEBAQAAAAAAAAAAAAADBAECBQAGB//EADoQAAEDAQQJAwMDAwMFAQAAAAEAAhEDITFBUQQSYXGBkaGx8AXB0RMi4TJC8VJicgYzshWCk6LCFP/EABkBAAMBAQEAAAAAAAAAAAAAAAIDBAEABf/EACARAQEBAAIDAAIDAAAAAAAAAAABAgMREiExE1EUQaH/2gAMAwEAAhEDEQA/APkMItFxF344hDaigcdovG8fxvTQDGpTIAc3VP8AU33ab+irSDgCW2tF+IjMjDihgTiDvs5otIFrpa4tdhbHI3Qtd27X8y3bFUhEquM/c0A4wInbAsHCxEY2RIwvFnbLaikD9EbXDmw4AuA+0ixw+R5tQGlXFMHYen4XFvNHkvUSEUVCBfsB2G8HZsQSmW0ziLDc4XcU6VLqdfEMfq2izAtvBHx17q7BiMMDlvxQtXzEI/0ThbZO3bZjwWUWZ24zETZhnGI/ChrEek1vA4YjccURujmC4WgX5jI7sP5ErtUYyqGFjoIkEcCDbI6EKaNIEwbs8jgrhs8O19iKKeSTdLMYBpUSSABJNkDNW+nYm6dMiHiRBEHJwtHHFFNObYFs3XCUq6UZz0SdRujEdbj2Usppw0jYOXFSynHnmSVdHyE9QmTz42LnNiMwSe3wtGrRbLi2wTAGwC8oZoDVJJtloAzBDiTwgc0PkLpnClecvf8AhCdTWk1kGY8hB+let8m+JD6edyH9KTkn6lMTZcg1WW2XI5ovWCD2ebLlTEF0kewTb2+bUF9NMlI1gpWMmeguGwbEEhMuahuCZKm1kEmyOKqKc78vMExq/b3Jzyb8+GWVQ1hA/U683QN958vRFUsGRby+diGUWoyPLeOSGL1wVCoKPWjec7uTcBvt2BChCKKFQilwwHE3/A8tQ1jVSFCsp1YvHssrVYXK7S2bQTus7hchaOXF0kski8tGqeMCOiE0ozquUg4WgxuMSFZ1fW/UAdohruJx4pgK6jqmx0+4+UR9IDGRxs35HmgAxceibo6Y+IlpGTvYm7mikDaFUDYsJEXA2jgop2fi9TUmbo2LgEyQu6Hacb/MUdoBQGQc94v5Y80ZgEYzngfMuqLwKvL0O2iB+0EHD4N7TzCG6mRdMZYpnRK+f4Wro2jMdfZkRaOIxWW3P1s638YDCd4TIoHVDhNl425iLjYtat6aHWgQdl3AJc6I5hsxvyO9d5S/BZxc32z2jz5TdEi0RfzB+FLdH4b/ADqrsppOqu48yrUqVom7lPHBF+mJsu5dFak3AphtAgxCn1pVnPSjGmC0XGCRtEx3PMpmgLIIkAzzsPtyV2MI5RwITdDR7NbA/MHiJB4pN2b0S+iubRWkNHvC5tFL1r2LLO+jaq1aNpsjZktQ0Pf3UaRSkk5375PtCDyFGW2gA3WN+sIbmIJJPQcUo+ktmpQ7fylX0V3mOMw0kF1Lrd8rUfTgERbZwGKUqU0yad0zajEGo0RAG84nZu83adSm3UF+sTbkB7nHIbZsTrM5J2dFayQexB+nOMDP4Tj2ID2J+ak5MlXtGF3l6ER/PwmnmyPPygPbHndNiXUBe1URHmUMhaWoVCspa8i6zvzwWV0Vqgi+zZd0QyrlWpk3CN5j3QigQcRdZ35qWNGMgd+au9ubpOy3rd3Qyf5KEQ1DRXVDq02Enf3JgDouQmU2kw5wAzgnoFyxzR9Q9Oq0Xarw2cCxzHg/+NxHRKMnKeqqwbPOCu10EHLaCmAq7bxDYJ5cnIlag5v6mFu2DB9uSJTrNcCDDTgSDbvP3O5K0ln26wLTBOqQQbcjbO+EUBSzTsRGNBxjerPa29pG60H37rms/qkDMCU7MI3VvpuFpBjPDmmadQEW889+aCwlp+1/Ikc0VjZtMTy/CZE2vZ2jRnI9/wAp7RmlpsKz9GsNh4LY0PSCDcfMwuocer9bGiEGA6LbnC0fI4rSGgtcIIB2rHo0Q61pWho2kVKZzCj5OP8AvL1+Dk9da9qaT6HAMCRniFlVfTy3Be29P9QY+8wck/V9JbUFmPJSXls9aXZ459y+cCl/HwmdGaQRHA+dl6TTP9PFpkgxmBJHDFZdXRoJ+2N134S9a/RmQBTwvGB2Jii22FZtGLCmaVGcLfhTa2bIIafnZV+immiY3RwRRTQ3fbJOiYo3obqC0/p2Gy3Phd25If0/POCHyayq9JKupLZqUpG6zul61PWLiTbfvM27hf0WdjjGfS/nJJV6a3q+i/bJskwBjESTHLms6po9k4Jma3tk1aUxd5iSlHMtWlWppWo2FTihrNqNS1Rq0qwEARGZm0pXSSCftbA3kk7Sc9wCpzU+4z3tQ7BeJO27kmnsOE77v4S72p+UW4VcFD2CL7cgO5Ri1BcEfSehEKquVUrrHRQhQQrwohBRRTVUEK8LpGSEQmi1GNMuph4ycXgcmEHquUUajQZczWGWtq9QJXLOmi6VVY4zTpmmMtcv6kAoKvUeCbGBuwFx/wCRKimNscJTC6ljvLD3Rg8HAcvyql2Bg7hHsrAY6p3290cBXMZN0cwO5VtUg/I+Vb6jcRbgbT0JjorfWBsLWnaAGH/1s6FNyn25r9gR6E5EoLTbZ1g9YR2OGLQdxhMJN03i6Otqd0dxFxSLagwbHXuj0YzWWtzluaLXH7hG3DitqgbBDmkZTPMXrzOjPIuJWpozptkdvykbW8Ppst0fWubbs8laHp2mVaZAmRt7Ss3Rqn22m3Ig9CPdPUXg/m1ScmZfr0MXp6z0/wBSp1RDrDtzV9N9BY8S2Aei85Tp4ibMRaPwtX071V7LCZCh3i5+Hd9/GVpvojqeFiVFIixfQKGk06othJ6b6GDa1T69jzydeq8lSYmW0rNxuTlX08tNyMzR9nkpXsdsIGlYoFHNa7dFVX6KVszWeUYtSjYla9EC63bELbq0Vn1qaLp00xq1JJVaK3nUgAZibgIm/HJZtdqPMF5MWtTSNVi2K9NJVqUXgztsVOGWsiqxKVWRxWpXA3bklWm+2c5VWCt0hVpkXg5ibJ3SlqrDE2AbxPK9N1RbJPul6lt/YAfCoyi5Cb0EhMVAguCbE1UcAMZPT5QiiiMVR0ZLK4MlQVclVQUUUUFWKqhEvo9XVM6jH7HgkcgQuUMBNgBJ2SegULGm6tNoP2ua8ZgOb0cAVzWCYi3IawP/ABS87e6s1k3W8/hM7LsNPpmLyNji63mFWm8tMwevsqmgR58hQ2mcjyKPINGBpLjYLNkke6Eb/gypYz+3rHdc1ttvRNyn0LRfF3tKaOkSP3A5hwA4gN90sxoJgHmQOqYFE4Qdx1h0RlrM3puid3VBp6O42gOIzDTFm2EfR24WdO5CDR2D9CiSJvGYBPt3TlB4aRBDhx9wsxrYP8HsntGquFziN1nYpGqu48tajWyJjbBjjYtLRa5FgeYN4vneFjaO220tE2y6e4kpugbb+Sm1VOY9BQrnzwpltQZrHpC4mbcc07SdtKm3TZGpSqEEap5Ld9O9XNzl5emd/nBO6OCbipN/fQ7O57ez1WVAgH06DYsv06sRivQ0KkhHiZ199Ea7x8+Fm6Iq19H2LQQq7bE7XFMwubvbA0zR4EBY9WmBfyW76g/BYVUX2Spt9d+lWPhHSDkI7cys3Sm22eclsvH9qz9JGxbJ2Lvpj1meSkqrDf1tWpWAy7/KSrCzBU4jNaZdakfLFn1aa1arN3MJOvRIE/bH+QJ5AyqsQnWmW+mNnHW9kpVacAN8SOq0Kjc+glKVQLAAQcyRHaxUZiTk0zqjUFzQm9IYRf0IPZKvTZEt0Hq7unuhOCIeKo4LLGyqmPP4XfTs/U3r8KCFAYfCPdLsMihUDeruB8/CoQgo4uyoW2tJG0GD0K5dRYz95cBm1oceRc3uuWNXfWLrTqj/ABYxg5MACtTEkCCScpnkFNVjAftc5wzIDOkuXNo4gEZXn2CYWK/RHCXFjw3MtcBzIVG6v9LiNhA/+SuFG22d9nYlMU2yPtY7fB7yUcL0pUqgixsb9Un/AIhcyDYG271JOrewGf6tezsFBcTbqtG4WdU2EaHIiJa1vF3sSVZok/aJ/wAdb3QaNpuk5QPZGe66Q0f4x1vRgG1XNvbG8GeRRqO08glqQGCapuaBnv8AgINHYMUxlYNsJ+lSGDp3XczCS0cuN0bzqgc3IzDb+ZU+1/E0qDosnsnaJEWkz04rMpOm4d09ScbrlNtXmNOk/wAtT+jmchvMLO0cXEgwf3Ec4ttTdN489ypdmRpUTtT+jvCyaFTYN9tm5O0Hqet6btCotjRdIsXl6dfLmnqGlQhl9g1nt6YaQFZtcFee/wD1oNTSyMUz82oX+GVv6ZoIeLF5j1D097DdZmmtF9cLTBW1R02nVEG/IpWtY389X/Bzz4/vuPBucAbZSdYr2fqnoAdJYvIeoaC+mbQV2Ne+qbLNTuEqjLYcQNt446qz6oR6tRLPeDiruMrQNSkdXW1JH9UGBxBhZ1QkWgxuJCbrkYTxSFYbVXmEaoFV7YgsbP8AX9xdf/lHRZlW+xaRc4AkBpGMhruMG0b1mVXJ+Yl5KWruJvMpV4TTyMjz/CXcATZ1s5psS6oBCqfLUWrTIy4EHsUMOI/gHussdKoRlKh7CLwRvCM5xOQ3QOiE6ocSeZS6dKEuICuY8H5VCgo4vQruYZbE7WscOT2kLkJchF2LEfqaeMjurtbrYDzYq1KpcZcZOZJJ5mSrNusLjGABjzgjgKktiybeI72qRIxVQzbui1EZozz+07oJPK9MhekOdsHX+FYAi2R0Kq+kQYi3h1i5SGxl50TYRoQvJvPNMtc3VgTO+ydwA7lL03HA8kVjwNpzNvREDsQM8Nia0dzRe0uOFsDkBJ5pNr9nm4JqiQf1OgZR7WDqs1DMUamm6XBKMcBcZ2xA4Tb2RWFI1F3FpoUqvl3ZOUnHMAYD4CzabvPLk3TcRxx9gVLuLs1raNUGP3ZYeeXJuk8eXLJpPTlKoptwyNek7FNU6qyaVRN0qu2xT6g2rTfCPTqLMp1cUxSrjGYg3ZwY6wg6ZWh9Q34XTtQX1ksK1l6E6qhsdIJpF5jC/Zv4mEGnpzmmQUGrVJvStR6X4ezZXq/Tv9TEWOM+YrZNWjXEGJXzR9SLRxV9H9VczFF+HsGszvuenpPVP9Pap12csxkvE+o6O5hMiLeXQL2mgf6oBsfaExptGnXaS2DnnxzTMcm+L1r47x8vr5k+qd6A+sMuf4W76z6E5slto6rzVUkWOs3j3vHVenw8mdT0l5+O5DrOCTqb/ZGrZyOB7i8JSoVbl5nJegapPnylnpmpGEjO3tcgVRk4HgQeOHUo09oQjLrB6qpdt5qSdihxGQCytyoQqlWKrKXT8o1iLiVUqSVLmEYH2QUcDXK9OpBsjiA7oQVyESC7yIVtcm8k7z8q1YOn73Sdjg88wSOqg1v6QB1P4WsEa5ouvzt72Kv1TgY86oaLo7JNjojG0coTIVoelotR1uqYzNgjeV1gy4Cep9kXSNMfAa1/2xBgas9yeaUaU3JOhmVDcSYxgeSjPDYs1uMW8MOu9LtcmqdEuBdADRe72k3nYLdiMtelSETrNGzHjgO+xEpvaMJ2mY4CxKhozs6lGbVsgCO53ldY3NN/Um8cgBwssHJHpVjBDbBjbfvOWxJ0rSJI43DfCd+vBBa6YFh1QAP8Qbt9+N6XqKuPa9Mptj+KSY4nHeSmKJzu2XqfWV3Hs9ScnabhG3HID5WcHZWewTFOqIiNs7MBs/hT6yola1Cs2bRZhabPk/lFa77gHWXE5wRIs3LJp1bEdtU3nG1I1gcrUFbBFNaTdA/EfKy21URtVKuBxpmrE8lStWBukJE1bDvHuq/VWeDoYqVkF9QRM2zdmM52HugOqIDqi6YF2YNTZPwUu54iDzy/CC6tCG56dnBer0n65BTOjerOZBDisx7kEn8+Zp845Z1Srvr3HtKXrjXgfUETc4XHfGKR9T9PpvEi+8OEEHevKPqETBkeX5Imi+qvZjYeI4+Sh/i+N7w7+VL60W9T0AtMgcvysurU2Qdl3Ir1f/UGVBFgOR9isnT9BBuVHHyWetJOfizr3lhucquaIkT7c1avRLUEE4dFZLK83WbK4M2/PWJ5qj2jAg9+SklVKGxuaqAo1dqkhVKVVGUlxHkj4UsqgftG+0HoQqTsVCgo4l5GEjeZ6wFytQr6pnVadj2teOTh2XLBdGfU9BFF+rrF/wDcab6YO4PtI2oDYvceA891Nau57i55c5xxe4vcealjThvht4G04LgqzNwAHmJtVwxuBLjss6n4Qw0Z+b/hSG7bM7uWJTICjmk0fuk7LAOku4DipqUCImycD+rfq3gb0KkLZBIjL9W/Yuzv7nicU3JGl27OaLrF0WkwLJNgHsFWlU1f2gnCRYNsYnfYiU9JOIk8bUyFVwjirAqH1C60wALgLBuAxU6pFhBByuvRBMUiBv7flNUGgS5wsFwJgF2Rx4Dok6FUtusnHH/t+VLChsNzo5StKZJg6oM5kXTszCSpVI9t6LRkmBJJsjEkpWsqschxlTDLyUxStMC38CT2SZEEjWBwkXbbcRtRKNUiQMbN4kfhJ1lZjkO/VmNiM2pbuSLTEg4Tzy5ojakd0m4Omz4q4+eWIhqW2Ymw8YWd9VXc+CLcuwPul3A/I+6tZ5tVH1sdyVNWwgbFX6lizwb5G3VZPlwH4QH1ED6iG6otmGeQhqKhrmIQKj1SsbrZkSD5tkcEzOA62K+pwz+UvUdfahmoqOJJuvuTs5S72Yo13NBc2D/U3MZx8LOe9TXqbN/52pdxTZEm9diNqEXtkHnZkc0Wn6hZfOw38DiEsKsS0zHY4FLuMkyRvz4rbiX6XOSz4031GvxSGk6NFyEdIIEEWi43EfIVqekTeg8bn4Pzm/oBsvtVfLUyQDegVqcYyt8mfj/SjguaybonK48M1w3/AAqOQ0ciSIN0Haqu3KCVGsgo4qQuUyuQiF0nR30zqvGqcRIJ46ps4qj6pNmGQsHId1SmLCoC5lXCtCq25Eq3nZ8I5QUYuEWngLAPdx8kq+jOLjAB3DHeTd12JaiLR5gntC/2nnHWYJ2G8bimwnQJgkmwDj72lQDld1KjSf1u39Fejc7h3TYVR9GaW/fYALASJg/2jE9r1VrgTJM244nEnYqVTduHUCVARwunKYnd+55wAwAwwsFpVdYfE+6g4eYBUatdKZa6zy5HpOgSeA9z5+VWIjLm/wCR7D5KGw3OqYm7CRZuunmDyRKdUgggwc1Gkf7h2DtTEITEuxRndOF0WKzaiVlWKXcqM7pptQQc7Pz7LhU90uFw9ku5Om6bbUGO3soFRCp47vcKi7xd50bXQi9UeqOWzLLur1KluzJVNUYjCJx2fCEblSpcEUyVrdWqG7cgmphgolVq/pH+TuwRyJtaq2lEg2mZEg5jA9OYKWc6DsyXFDcmSEa0k1LIvGE380BxVsOKirguYprclBbZN48vXOvXU/1ceiCjy4HI81GuqOXPvSqfldoBw5X8M0J1iK4fY3e72Vatw3e5QdmSB7uSqVBTWkj7GnGBahreiilQcPMVyxr/2Q==;" vertex="1" parent="zkwUHvIcLmXq8PSMDE9L-7">
          <mxGeometry x="160" y="200" width="228" height="107.05" as="geometry" />
        </mxCell>
        <mxCell id="zkwUHvIcLmXq8PSMDE9L-9" value="SAS DECOMMISSIONING" style="rounded=1;whiteSpace=wrap;html=1;" vertex="1" parent="zkwUHvIcLmXq8PSMDE9L-7">
          <mxGeometry x="510" y="200" width="220" height="110" as="geometry" />
        </mxCell>
        <mxCell id="zkwUHvIcLmXq8PSMDE9L-10" value="SAS DECOMMISSIONING" style="rounded=1;whiteSpace=wrap;html=1;" vertex="1" parent="zkwUHvIcLmXq8PSMDE9L-7">
          <mxGeometry x="164" y="410" width="220" height="110" as="geometry" />
        </mxCell>
        <mxCell id="zkwUHvIcLmXq8PSMDE9L-11" value="" style="shape=image;verticalLabelPosition=bottom;labelBackgroundColor=#ffffff;verticalAlign=top;aspect=fixed;imageAspect=0;image=data:image/jpeg,/9j/4AAQSkZJRgABAQAAAQABAAD/2wCEAAkGBxMTEhUTExIVFhUXFxcYFxUYGBcXFxcVFxUXFxcYFxgYHSggGholHRUVITEhJSkrLi4uFx8zODMtNygtLisBCgoKDg0OFxAQGi0dHR0tLS0tLS0tLS0tLS0tLS0tLS0tLS0tLSstLSstLS0tLS0tLS0tLS0tKy0tLS0tNzc3Lf/AABEIAJoBSAMBIgACEQEDEQH/xAAbAAACAwEBAQAAAAAAAAAAAAADBAECBQAGB//EADoQAAEDAQQJAwMDAwMFAQAAAAEAAhEDITFBUQQSYXGBkaGx8AXB0RMi4TJC8VJicgYzshWCk6LCFP/EABkBAAMBAQEAAAAAAAAAAAAAAAIDBAEABf/EACARAQEBAAIDAAIDAAAAAAAAAAABAgMREiExE1EUQaH/2gAMAwEAAhEDEQA/APkMItFxF344hDaigcdovG8fxvTQDGpTIAc3VP8AU33ab+irSDgCW2tF+IjMjDihgTiDvs5otIFrpa4tdhbHI3Qtd27X8y3bFUhEquM/c0A4wInbAsHCxEY2RIwvFnbLaikD9EbXDmw4AuA+0ixw+R5tQGlXFMHYen4XFvNHkvUSEUVCBfsB2G8HZsQSmW0ziLDc4XcU6VLqdfEMfq2izAtvBHx17q7BiMMDlvxQtXzEI/0ThbZO3bZjwWUWZ24zETZhnGI/ChrEek1vA4YjccURujmC4WgX5jI7sP5ErtUYyqGFjoIkEcCDbI6EKaNIEwbs8jgrhs8O19iKKeSTdLMYBpUSSABJNkDNW+nYm6dMiHiRBEHJwtHHFFNObYFs3XCUq6UZz0SdRujEdbj2Usppw0jYOXFSynHnmSVdHyE9QmTz42LnNiMwSe3wtGrRbLi2wTAGwC8oZoDVJJtloAzBDiTwgc0PkLpnClecvf8AhCdTWk1kGY8hB+let8m+JD6edyH9KTkn6lMTZcg1WW2XI5ovWCD2ebLlTEF0kewTb2+bUF9NMlI1gpWMmeguGwbEEhMuahuCZKm1kEmyOKqKc78vMExq/b3Jzyb8+GWVQ1hA/U683QN958vRFUsGRby+diGUWoyPLeOSGL1wVCoKPWjec7uTcBvt2BChCKKFQilwwHE3/A8tQ1jVSFCsp1YvHssrVYXK7S2bQTus7hchaOXF0kski8tGqeMCOiE0ozquUg4WgxuMSFZ1fW/UAdohruJx4pgK6jqmx0+4+UR9IDGRxs35HmgAxceibo6Y+IlpGTvYm7mikDaFUDYsJEXA2jgop2fi9TUmbo2LgEyQu6Hacb/MUdoBQGQc94v5Y80ZgEYzngfMuqLwKvL0O2iB+0EHD4N7TzCG6mRdMZYpnRK+f4Wro2jMdfZkRaOIxWW3P1s638YDCd4TIoHVDhNl425iLjYtat6aHWgQdl3AJc6I5hsxvyO9d5S/BZxc32z2jz5TdEi0RfzB+FLdH4b/ADqrsppOqu48yrUqVom7lPHBF+mJsu5dFak3AphtAgxCn1pVnPSjGmC0XGCRtEx3PMpmgLIIkAzzsPtyV2MI5RwITdDR7NbA/MHiJB4pN2b0S+iubRWkNHvC5tFL1r2LLO+jaq1aNpsjZktQ0Pf3UaRSkk5375PtCDyFGW2gA3WN+sIbmIJJPQcUo+ktmpQ7fylX0V3mOMw0kF1Lrd8rUfTgERbZwGKUqU0yad0zajEGo0RAG84nZu83adSm3UF+sTbkB7nHIbZsTrM5J2dFayQexB+nOMDP4Tj2ID2J+ak5MlXtGF3l6ER/PwmnmyPPygPbHndNiXUBe1URHmUMhaWoVCspa8i6zvzwWV0Vqgi+zZd0QyrlWpk3CN5j3QigQcRdZ35qWNGMgd+au9ubpOy3rd3Qyf5KEQ1DRXVDq02Enf3JgDouQmU2kw5wAzgnoFyxzR9Q9Oq0Xarw2cCxzHg/+NxHRKMnKeqqwbPOCu10EHLaCmAq7bxDYJ5cnIlag5v6mFu2DB9uSJTrNcCDDTgSDbvP3O5K0ln26wLTBOqQQbcjbO+EUBSzTsRGNBxjerPa29pG60H37rms/qkDMCU7MI3VvpuFpBjPDmmadQEW889+aCwlp+1/Ikc0VjZtMTy/CZE2vZ2jRnI9/wAp7RmlpsKz9GsNh4LY0PSCDcfMwuocer9bGiEGA6LbnC0fI4rSGgtcIIB2rHo0Q61pWho2kVKZzCj5OP8AvL1+Dk9da9qaT6HAMCRniFlVfTy3Be29P9QY+8wck/V9JbUFmPJSXls9aXZ459y+cCl/HwmdGaQRHA+dl6TTP9PFpkgxmBJHDFZdXRoJ+2N134S9a/RmQBTwvGB2Jii22FZtGLCmaVGcLfhTa2bIIafnZV+immiY3RwRRTQ3fbJOiYo3obqC0/p2Gy3Phd25If0/POCHyayq9JKupLZqUpG6zul61PWLiTbfvM27hf0WdjjGfS/nJJV6a3q+i/bJskwBjESTHLms6po9k4Jma3tk1aUxd5iSlHMtWlWppWo2FTihrNqNS1Rq0qwEARGZm0pXSSCftbA3kk7Sc9wCpzU+4z3tQ7BeJO27kmnsOE77v4S72p+UW4VcFD2CL7cgO5Ri1BcEfSehEKquVUrrHRQhQQrwohBRRTVUEK8LpGSEQmi1GNMuph4ycXgcmEHquUUajQZczWGWtq9QJXLOmi6VVY4zTpmmMtcv6kAoKvUeCbGBuwFx/wCRKimNscJTC6ljvLD3Rg8HAcvyql2Bg7hHsrAY6p3290cBXMZN0cwO5VtUg/I+Vb6jcRbgbT0JjorfWBsLWnaAGH/1s6FNyn25r9gR6E5EoLTbZ1g9YR2OGLQdxhMJN03i6Otqd0dxFxSLagwbHXuj0YzWWtzluaLXH7hG3DitqgbBDmkZTPMXrzOjPIuJWpozptkdvykbW8Ppst0fWubbs8laHp2mVaZAmRt7Ss3Rqn22m3Ig9CPdPUXg/m1ScmZfr0MXp6z0/wBSp1RDrDtzV9N9BY8S2Aei85Tp4ibMRaPwtX071V7LCZCh3i5+Hd9/GVpvojqeFiVFIixfQKGk06othJ6b6GDa1T69jzydeq8lSYmW0rNxuTlX08tNyMzR9nkpXsdsIGlYoFHNa7dFVX6KVszWeUYtSjYla9EC63bELbq0Vn1qaLp00xq1JJVaK3nUgAZibgIm/HJZtdqPMF5MWtTSNVi2K9NJVqUXgztsVOGWsiqxKVWRxWpXA3bklWm+2c5VWCt0hVpkXg5ibJ3SlqrDE2AbxPK9N1RbJPul6lt/YAfCoyi5Cb0EhMVAguCbE1UcAMZPT5QiiiMVR0ZLK4MlQVclVQUUUUFWKqhEvo9XVM6jH7HgkcgQuUMBNgBJ2SegULGm6tNoP2ua8ZgOb0cAVzWCYi3IawP/ABS87e6s1k3W8/hM7LsNPpmLyNji63mFWm8tMwevsqmgR58hQ2mcjyKPINGBpLjYLNkke6Eb/gypYz+3rHdc1ttvRNyn0LRfF3tKaOkSP3A5hwA4gN90sxoJgHmQOqYFE4Qdx1h0RlrM3puid3VBp6O42gOIzDTFm2EfR24WdO5CDR2D9CiSJvGYBPt3TlB4aRBDhx9wsxrYP8HsntGquFziN1nYpGqu48tajWyJjbBjjYtLRa5FgeYN4vneFjaO220tE2y6e4kpugbb+Sm1VOY9BQrnzwpltQZrHpC4mbcc07SdtKm3TZGpSqEEap5Ld9O9XNzl5emd/nBO6OCbipN/fQ7O57ez1WVAgH06DYsv06sRivQ0KkhHiZ199Ea7x8+Fm6Iq19H2LQQq7bE7XFMwubvbA0zR4EBY9WmBfyW76g/BYVUX2Spt9d+lWPhHSDkI7cys3Sm22eclsvH9qz9JGxbJ2Lvpj1meSkqrDf1tWpWAy7/KSrCzBU4jNaZdakfLFn1aa1arN3MJOvRIE/bH+QJ5AyqsQnWmW+mNnHW9kpVacAN8SOq0Kjc+glKVQLAAQcyRHaxUZiTk0zqjUFzQm9IYRf0IPZKvTZEt0Hq7unuhOCIeKo4LLGyqmPP4XfTs/U3r8KCFAYfCPdLsMihUDeruB8/CoQgo4uyoW2tJG0GD0K5dRYz95cBm1oceRc3uuWNXfWLrTqj/ABYxg5MACtTEkCCScpnkFNVjAftc5wzIDOkuXNo4gEZXn2CYWK/RHCXFjw3MtcBzIVG6v9LiNhA/+SuFG22d9nYlMU2yPtY7fB7yUcL0pUqgixsb9Un/AIhcyDYG271JOrewGf6tezsFBcTbqtG4WdU2EaHIiJa1vF3sSVZok/aJ/wAdb3QaNpuk5QPZGe66Q0f4x1vRgG1XNvbG8GeRRqO08glqQGCapuaBnv8AgINHYMUxlYNsJ+lSGDp3XczCS0cuN0bzqgc3IzDb+ZU+1/E0qDosnsnaJEWkz04rMpOm4d09ScbrlNtXmNOk/wAtT+jmchvMLO0cXEgwf3Ec4ttTdN489ypdmRpUTtT+jvCyaFTYN9tm5O0Hqet6btCotjRdIsXl6dfLmnqGlQhl9g1nt6YaQFZtcFee/wD1oNTSyMUz82oX+GVv6ZoIeLF5j1D097DdZmmtF9cLTBW1R02nVEG/IpWtY389X/Bzz4/vuPBucAbZSdYr2fqnoAdJYvIeoaC+mbQV2Ne+qbLNTuEqjLYcQNt446qz6oR6tRLPeDiruMrQNSkdXW1JH9UGBxBhZ1QkWgxuJCbrkYTxSFYbVXmEaoFV7YgsbP8AX9xdf/lHRZlW+xaRc4AkBpGMhruMG0b1mVXJ+Yl5KWruJvMpV4TTyMjz/CXcATZ1s5psS6oBCqfLUWrTIy4EHsUMOI/gHussdKoRlKh7CLwRvCM5xOQ3QOiE6ocSeZS6dKEuICuY8H5VCgo4vQruYZbE7WscOT2kLkJchF2LEfqaeMjurtbrYDzYq1KpcZcZOZJJ5mSrNusLjGABjzgjgKktiybeI72qRIxVQzbui1EZozz+07oJPK9MhekOdsHX+FYAi2R0Kq+kQYi3h1i5SGxl50TYRoQvJvPNMtc3VgTO+ydwA7lL03HA8kVjwNpzNvREDsQM8Nia0dzRe0uOFsDkBJ5pNr9nm4JqiQf1OgZR7WDqs1DMUamm6XBKMcBcZ2xA4Tb2RWFI1F3FpoUqvl3ZOUnHMAYD4CzabvPLk3TcRxx9gVLuLs1raNUGP3ZYeeXJuk8eXLJpPTlKoptwyNek7FNU6qyaVRN0qu2xT6g2rTfCPTqLMp1cUxSrjGYg3ZwY6wg6ZWh9Q34XTtQX1ksK1l6E6qhsdIJpF5jC/Zv4mEGnpzmmQUGrVJvStR6X4ezZXq/Tv9TEWOM+YrZNWjXEGJXzR9SLRxV9H9VczFF+HsGszvuenpPVP9Pap12csxkvE+o6O5hMiLeXQL2mgf6oBsfaExptGnXaS2DnnxzTMcm+L1r47x8vr5k+qd6A+sMuf4W76z6E5slto6rzVUkWOs3j3vHVenw8mdT0l5+O5DrOCTqb/ZGrZyOB7i8JSoVbl5nJegapPnylnpmpGEjO3tcgVRk4HgQeOHUo09oQjLrB6qpdt5qSdihxGQCytyoQqlWKrKXT8o1iLiVUqSVLmEYH2QUcDXK9OpBsjiA7oQVyESC7yIVtcm8k7z8q1YOn73Sdjg88wSOqg1v6QB1P4WsEa5ouvzt72Kv1TgY86oaLo7JNjojG0coTIVoelotR1uqYzNgjeV1gy4Cep9kXSNMfAa1/2xBgas9yeaUaU3JOhmVDcSYxgeSjPDYs1uMW8MOu9LtcmqdEuBdADRe72k3nYLdiMtelSETrNGzHjgO+xEpvaMJ2mY4CxKhozs6lGbVsgCO53ldY3NN/Um8cgBwssHJHpVjBDbBjbfvOWxJ0rSJI43DfCd+vBBa6YFh1QAP8Qbt9+N6XqKuPa9Mptj+KSY4nHeSmKJzu2XqfWV3Hs9ScnabhG3HID5WcHZWewTFOqIiNs7MBs/hT6yola1Cs2bRZhabPk/lFa77gHWXE5wRIs3LJp1bEdtU3nG1I1gcrUFbBFNaTdA/EfKy21URtVKuBxpmrE8lStWBukJE1bDvHuq/VWeDoYqVkF9QRM2zdmM52HugOqIDqi6YF2YNTZPwUu54iDzy/CC6tCG56dnBer0n65BTOjerOZBDisx7kEn8+Zp845Z1Srvr3HtKXrjXgfUETc4XHfGKR9T9PpvEi+8OEEHevKPqETBkeX5Imi+qvZjYeI4+Sh/i+N7w7+VL60W9T0AtMgcvysurU2Qdl3Ir1f/UGVBFgOR9isnT9BBuVHHyWetJOfizr3lhucquaIkT7c1avRLUEE4dFZLK83WbK4M2/PWJ5qj2jAg9+SklVKGxuaqAo1dqkhVKVVGUlxHkj4UsqgftG+0HoQqTsVCgo4l5GEjeZ6wFytQr6pnVadj2teOTh2XLBdGfU9BFF+rrF/wDcab6YO4PtI2oDYvceA891Nau57i55c5xxe4vcealjThvht4G04LgqzNwAHmJtVwxuBLjss6n4Qw0Z+b/hSG7bM7uWJTICjmk0fuk7LAOku4DipqUCImycD+rfq3gb0KkLZBIjL9W/Yuzv7nicU3JGl27OaLrF0WkwLJNgHsFWlU1f2gnCRYNsYnfYiU9JOIk8bUyFVwjirAqH1C60wALgLBuAxU6pFhBByuvRBMUiBv7flNUGgS5wsFwJgF2Rx4Dok6FUtusnHH/t+VLChsNzo5StKZJg6oM5kXTszCSpVI9t6LRkmBJJsjEkpWsqschxlTDLyUxStMC38CT2SZEEjWBwkXbbcRtRKNUiQMbN4kfhJ1lZjkO/VmNiM2pbuSLTEg4Tzy5ojakd0m4Omz4q4+eWIhqW2Ymw8YWd9VXc+CLcuwPul3A/I+6tZ5tVH1sdyVNWwgbFX6lizwb5G3VZPlwH4QH1ED6iG6otmGeQhqKhrmIQKj1SsbrZkSD5tkcEzOA62K+pwz+UvUdfahmoqOJJuvuTs5S72Yo13NBc2D/U3MZx8LOe9TXqbN/52pdxTZEm9diNqEXtkHnZkc0Wn6hZfOw38DiEsKsS0zHY4FLuMkyRvz4rbiX6XOSz4031GvxSGk6NFyEdIIEEWi43EfIVqekTeg8bn4Pzm/oBsvtVfLUyQDegVqcYyt8mfj/SjguaybonK48M1w3/AAqOQ0ciSIN0Haqu3KCVGsgo4qQuUyuQiF0nR30zqvGqcRIJ46ps4qj6pNmGQsHId1SmLCoC5lXCtCq25Eq3nZ8I5QUYuEWngLAPdx8kq+jOLjAB3DHeTd12JaiLR5gntC/2nnHWYJ2G8bimwnQJgkmwDj72lQDld1KjSf1u39Fejc7h3TYVR9GaW/fYALASJg/2jE9r1VrgTJM244nEnYqVTduHUCVARwunKYnd+55wAwAwwsFpVdYfE+6g4eYBUatdKZa6zy5HpOgSeA9z5+VWIjLm/wCR7D5KGw3OqYm7CRZuunmDyRKdUgggwc1Gkf7h2DtTEITEuxRndOF0WKzaiVlWKXcqM7pptQQc7Pz7LhU90uFw9ku5Om6bbUGO3soFRCp47vcKi7xd50bXQi9UeqOWzLLur1KluzJVNUYjCJx2fCEblSpcEUyVrdWqG7cgmphgolVq/pH+TuwRyJtaq2lEg2mZEg5jA9OYKWc6DsyXFDcmSEa0k1LIvGE380BxVsOKirguYprclBbZN48vXOvXU/1ceiCjy4HI81GuqOXPvSqfldoBw5X8M0J1iK4fY3e72Vatw3e5QdmSB7uSqVBTWkj7GnGBahreiilQcPMVyxr/2Q==;" vertex="1" parent="zkwUHvIcLmXq8PSMDE9L-7">
          <mxGeometry x="502" y="410" width="228" height="107.05" as="geometry" />
        </mxCell>
        <mxCell id="zkwUHvIcLmXq8PSMDE9L-12" value="&lt;b&gt;&lt;font style=&quot;font-size: 18px&quot;&gt;OR&lt;/font&gt;&lt;/b&gt;" style="text;html=1;strokeColor=none;fillColor=none;align=center;verticalAlign=middle;whiteSpace=wrap;rounded=0;" vertex="1" parent="zkwUHvIcLmXq8PSMDE9L-7">
          <mxGeometry x="420" y="350" width="40" height="20" as="geometry" />
        </mxCell>
        <mxCell id="zkwUHvIcLmXq8PSMDE9L-13" value="&lt;b&gt;&lt;font style=&quot;font-size: 18px&quot;&gt;OR&lt;/font&gt;&lt;/b&gt;" style="text;html=1;strokeColor=none;fillColor=none;align=center;verticalAlign=middle;whiteSpace=wrap;rounded=0;" vertex="1" parent="zkwUHvIcLmXq8PSMDE9L-7">
          <mxGeometry x="420" y="570" width="40" height="20" as="geometry" />
        </mxCell>
        <mxCell id="zkwUHvIcLmXq8PSMDE9L-14" value="" style="shape=image;verticalLabelPosition=bottom;labelBackgroundColor=#ffffff;verticalAlign=top;aspect=fixed;imageAspect=0;image=data:image/jpeg,/9j/4AAQSkZJRgABAQAAAQABAAD/2wCEAAkGBxISEhUSEhIVFRUVFRUXFRcVFRUXFRUVFRUWFxcVFRUYHSggGBolHRUVITEhJSkrLi4uFx8zODMtNygtLisBCgoKDQ0NFQ8NDysZHxkrKysrLSsrKysrKysrKysrKysrKysrLSsrKysrLS0rKysrKysrKysrKysrKysrKysrLf/AABEIAKgBLAMBIgACEQEDEQH/xAAaAAEBAQEAAwAAAAAAAAAAAAAAAQIDBAUH/8QAMRABAAIAAggFAwQDAQEAAAAAAAERAgQDFjFBVJTS8BIhUWFxBoHhobHB0TSR8VIF/8QAFQEBAQAAAAAAAAAAAAAAAAAAAAH/xAAVEQEBAAAAAAAAAAAAAAAAAAAAEf/aAAwDAQACEQMRAD8A+KRHky3XffskzAMyLYBSUWeIFmF8PsmH+1iO+/gElKLIkAhcUl3tApGu/wAJYIJagkNRBBMghISAUkytgte6RC2AsJRaAECglLRM0kAsQTAWCLJBMghS2gLRGFCwWMTNqlgTJaLILaSSSCpMqkgQkLBAFibiAWFSFBmdrTMtAIqAFhIEkkkgqSqSAQQQAWQQAEoDQAJAQQAqEArEtsyDQSACyAgsoAAAAAUAFAABBALEJMLaTILMITIAFgBMCgkwEAALAIFJYKBYAFgEAAFlgJas7wastCAFSQBbSDCCoqQBZZBAFlkJOwFLJAW0xKmICQkAs3hvAssIALCQLW0UBmdrTM7QaBACAgFSwASVSQaSYapYwgwNUUDJENJQJRENJQCLQCQUUoJS0RACUUoAUUAlCpQAtAItEwAUkqRACRDUwAlJTUT3/oBAUERZKAookBCmrSwJlbZhQWZRCAUSEgGrLSCQWxloBFTeAEEAoysAoJIEKkEAokEQCgAQWzLQCSqSCiALZaJANTIzuWAame/JJkSQAogFFiDwgiQtAJEFLMFAkQNTCUCSoUAlLEFAhENUgJQ1SRACStKDMDUwUDNDUQV33sBBfD3/ACvhBilhaQBGp+5IMjVd/cBmimphJBApQChZBmIFpfDPoCozagvyd/ZmSZBuUmWSwbSGbAJlq2ZALapje0Dd/LEloC4ZXxMwA1Molkg1M9+5imWZLBucRbBYNokLMgTTMySSBbVsyoBMpJILAhIKQigWTKALEr4mYIAhV8Plff2KBGYhqYASBqcM+hGEGSFoBJG8MWzQIRK0eEBIbiO+/sk4QYghqiYBElpJAkWFjCDJK0AirSzG7/oOcrLUYSgZlSYXDAMyS13+UmASSWsOFYwgwqzH2+SYBkhvwpEAzBDc0lA8iI89+z33VOz02/7c8OO938LOl8+62ekyxoY8+9/ogYsM9+ZEXcu+OvP1i/bf6Vs2uWLSRu/qlDDG7eR8d7o79WZx97ITxA6XPfr5SuPBHv8Axsj0ju3Kcc1VrGkkHTHijz2xP3n5852fhjBiny8/082LIkG8Mfze3yXFh2RH6eu1jx9+vyYsQOkXdTu2bvmbS5n7+X/fdznGRiBuZ7hd2w8UeXpXpHv5T5Ocz3+QXH3+fdIjv1+EmSwb8PpHx69/0sd7PZI2MzIOke/ezz90mI/f0j7bfJjDJYNd+e7ad/DFrYN7e9nx5p9u/jvcxa+KQbxQlR+Px8Mzin1LBccmHFP6fsyA6YYvzn59d3sYo2V8bO/ZzWJBuvxs79WYk792bB18/Xf7bp90iO6997mtg3j/AIcwB7efpjP3/g5rltL+3hMP0vn+BzXL6XpBKNz9M/8A0J25HNcvpo21H/lz1Wz/AAOb5fS9IJQ1Xz/A5vl9L0pqxn+BzXL6XpUWoasZ/gc3y+l6TVjP1/g5rl9L0gBqvn+BzXL6XpSPpjP8DmuX0vSoVTVfP8DmuX0vSar5/gc1y+l6QBNWM/wOa5fS9K6r5/gc1y+l6QEXVfP8DmuX0vSmq+f4HN8vpekCqarZ/gc3y+l6SfpfP8DmuX0vSBRdV8/wOb5fS9Kar5/gc1y+l6QKGq+f4HNcvpek1Xz/AAOa5fS9IFDVfP8AA5vl9L0k/S+f4HNcvpekChqvn+BzXL6XpNV8/wADm+X0vSBQ1Wz/AAOb5fS9LWq2fr/BzfLaXpBKJH0vn+BzXL6XpTVfP8Dm+X0vSC0NV8/wOa5fS9Jqtn+BzfL6XpAos/S2f4HN8vpulNVs/wADmuX0vSCUNV8/wOa5fS9JH0vn+BzXL6XpBaGq+f4HNcvpek1Wz/A5vl9L0gUf/9k=;" vertex="1" parent="zkwUHvIcLmXq8PSMDE9L-7">
          <mxGeometry x="521" y="620" width="198" height="110.88" as="geometry" />
        </mxCell>
        <mxCell id="zkwUHvIcLmXq8PSMDE9L-15" value="SAS DECOMMISSIONING" style="rounded=1;whiteSpace=wrap;html=1;" vertex="1" parent="zkwUHvIcLmXq8PSMDE9L-7">
          <mxGeometry x="164" y="620" width="220" height="110" as="geometry" />
        </mxCell>
      </root>
    </mxGraphModel>
  </diagram>
</mxfile>
